<svg width="264" height="280" xmlns="http://www.w3.org/2000/svg" xmlns:xlink="http://www.w3.org/1999/xlink"><defs><path d="M12 160c0 66.274 53.726 120 120 120s120-53.726 120-120h12V0H0v160h12z" id="c"/><path d="M124 144.611V163h4c39.765 0 72 32.235 72 72v9H0v-9c0-39.765 32.235-72 72-72h4v-18.389c-17.237-8.189-29.628-24.924-31.695-44.73C38.48 99.058 34 94.052 34 88V74c0-5.946 4.325-10.882 10-11.834V56c0-30.928 25.072-56 56-56s56 25.072 56 56v6.166c5.675.952 10 5.888 10 11.834v14c0 6.052-4.48 11.058-10.305 11.881-2.067 19.806-14.458 36.541-31.695 44.73z" id="e"/><circle id="a" cx="120" cy="120" r="120"/></defs><g fill="none" fill-rule="evenodd"><g transform="translate(12 40)"><mask id="b" fill="#fff"><use xlink:href="#a"/></mask><use fill="#E6E6E6" xlink:href="#a"/><g mask="url(#b)" fill="#65C9FF"><path d="M0 0h240v240H0z"/></g></g><mask id="d" fill="#fff"><use xlink:href="#c"/></mask><g mask="url(#d)"><g transform="translate(32 36)"><mask id="f" fill="#fff"><use xlink:href="#e"/></mask><use fill="#D0C6AC" xlink:href="#e"/><g mask="url(#f)" fill="#FFDBB4"><path d="M0 0h264v280H0z"/></g><path d="M156 79v23c0 30.928-25.072 56-56 56s-56-25.072-56-56V79v15c0 30.928 25.072 56 56 56s56-25.072 56-56V79z" fill-opacity=".1" fill="#000" mask="url(#f)"/></g><g transform="translate(0 170)"><defs><path d="M105.192 29.052H104c-39.765 0-72 32.235-72 72V110h200v-8.948c0-39.765-32.235-72-72-72h-1.192c.127.983.192 1.984.192 3 0 13.807-12.088 25-27 25s-27-11.193-27-25c0-1.016.065-2.017.192-3z" id="g"/></defs><mask id="h" fill="#fff"><use xlink:href="#g"/></mask><use fill="#E6E6E6" xlink:href="#g"/><g mask="url(#h)" fill="#262E33"><path d="M0 0h264v110H0z"/></g><path d="M100.785 29.122C62.512 30.804 32 62.365 32 101.052V110h69.362C97.96 97.92 96 83.709 96 68.5c0-14.327 1.74-27.769 4.785-39.378zM163.638 110H232v-8.948c0-38.345-29.975-69.69-67.771-71.878C167.265 40.77 169 54.194 169 68.5c0 15.209-1.96 29.42-5.362 41.5z" fill="#3A4C5A"/><path d="M181 86l9.556-7.167a4 4 0 014.856.043L202 84l-21 2z" fill="#E6E6E6"/><path d="M101 28c-4 19.333-2.333 46.667 5 82H90L76 74l6-9-6-6 19-30c2.028-.63 4.028-.964 6-1zm62 0c4 19.333 2.333 46.667-5 82h16l14-36-6-9 6-6-19-30c-2.028-.63-4.028-.964-6-1z" fill="#2F4351"/><path d="M156 21.539c6.772 4.597 11 11.117 11 18.349 0 7.4-4.428 14.057-11.48 18.668l-5.94-4.68-4.58.332 1-3.151-.078-.061C152.022 47.853 156 42.7 156 36.876V21.54zm-48 0c-6.772 4.597-11 11.117-11 18.349 0 7.4 4.428 14.057 11.48 18.668l5.94-4.68 4.58.332-1-3.151.078-.061C111.978 47.853 108 42.7 108 36.876V21.54z" fill="#F2F2F2"/></g><g fill="#000"><path d="M118 150c0 5.372 6.158 9 14 9s14-3.628 14-9c0-1.105-.95-2-2-2-1.293 0-1.87.905-2 2-1.242 2.938-4.317 4.716-10 5-5.683-.284-8.758-2.062-10-5-.13-1.095-.707-2-2-2-1.05 0-2 .895-2 2z" fill-opacity=".6" fill-rule="nonzero"/><path d="M120 130c0 4.418 5.373 8 12 8s12-3.582 12-8" fill-opacity=".16"/><g transform="translate(76 90)"><circle fill-opacity=".6" cx="30" cy="22" r="6"/><path d="M25 27s-6 7.27-6 11.27a6 6 0 1012 0c0-4-6-11.27-6-11.27z" fill="#92D9FF" fill-rule="nonzero"/><circle fill-opacity=".6" cx="82" cy="22" r="6"/></g><path d="M98.766 83.578l.911-.402c5.242-2.081 13.188-1.209 18.046 1.123.567.272.18 1.153-.402 1.108-14.919-1.151-24.963 8.146-28.375 14.44-.101.187-.407.208-.482.034-2.308-5.319 4.45-13.985 10.302-16.303zm64.227 10.492c5.761.773 14.746 5.795 13.994 11.607-.024.19-.312.25-.436.091-2.487-3.188-21.712-7.872-28.714-6.894-.64.09-1.063-.571-.626-.984 3.744-3.535 10.62-4.518 15.782-3.82z" fill-opacity=".6"/></g><defs><path id="i" d="M0 0h264v280H0z"/><path d="M153.503 98.874C157.9 100.654 161 104.965 161 110v13c0 5.288-3.42 9.776-8.168 11.375a55.713 55.713 0 01-11.076 29.29c.209.807.41 1.625.556 2.503.55 3.327-.12 6.093 1.645 9.093.457.78 1.183 1.247 1.522 2.144.533 1.415-.232 4.594 1.95 4.595 3.106 0 1.374-5.966.596-7.384-1.525-2.772-2.462-3.45-2.383-7.044 1.745 1.16 7.53 3.376 9.448 2.316 4.432-2.448-6.662-4.936-7.438-5.453 1.704-1.666 3.656-2.55 5.197-4.746 1.26-1.793 2.406-4.397 4.55-4.501 1.186-.058 4.657 2.884 5.71.866.964-1.85-1.115-2.122-1.928-2.777-1.502-1.21-1.84-.006-1.474-2.134 1.085 1.165 2.789.429 3.244-1.015.49-1.559-1.127-2.024-1.097-3.014-.012.387.834-5.115.7-4.938.86-1.135 3.908-.784 5.413-.62 2.296.248 2.164.317 3.255 2.436.882 1.715 3.198 5.178 3.707.641.121-1.085-.869-3.404-1.45-4.338-.627-1.007-2.517-1.643-2.912-2.427-.944-1.87 2.165-6.034 1.639-8.854 1.093.418 3.857 6.927 5.198 1.599.707-2.8-6.505-8.945-3.514-9.894 2.289-.726 4.612 2.225 5.25 4.044.473 1.348.26 4.238 1.068 5.353 3.036 4.203 3.41-2.74 3.157-4.572-.559-4.026-1.984-6.988-5.623-8.51 1.295-1.607-.345-2.887-1.275-3.893 1.528-1.657 11.437.104 9.208-4.327-.538-1.072-2.481-1.262-3.467-1.655-2.49-.992-4.985-3.01-6.257-5.562 1.841-.46 7.28.798 6.565-2.996-.563-2.982-5.403-2.067-7.278-1.61 1.692-1.016 4.973-.174 5.434-2.941.531-3.183-3.288-3.076-5.08-2.402-.422-3.358 5.53-5.83 7.213-8.4.568-.867 1.47-1.164.746-2.633-1.306-2.643-4.68 1.086-5.792 2.09.876-1.628 3.32-8.403 2.95-10.122-.546-2.526-2.353-2.615-3.79-.568-.93 1.33-1.19 4.703-1.68 6.427-2.04-1.537-2.143.246-2.248-2.191-.068-1.58 2.002-4.701 2.532-6.248.456-1.329 1.668-3.76.943-5.046-1.776-3.143-3.473 1.172-3.94 2.652-.789-3.411 2.214-6.057 3.103-9.431.541-2.048 1.976-7.578-.51-8.561-3.394-1.341-2.2 4.956-2.678 7-.365 1.559-.922 4.077-2.139 4.845-.176.111-2.82.343-2.948.193-1.734-2.021 3.038-6.447 3.284-8.351.223-1.73-.44-2.825-2.061-2.929-.81-.051-2.12 1.2-2.495 1.119-1.48-.322.447-7.089.587-8.967.15-2.003-.094-7.172-3.483-4.785.227-2.697.364-5.236.734-7.891.195-1.4 1.398-2.645-.374-3.767-2.156-1.365-3.35 1.492-3.842 3.168-.846 2.885.9 7.375-3.158 7.466-4.665.106-1.444-4.73-1.215-7.868.128-1.74-1.012-6.421-3.262-3.263-.896 1.259-.587 5.694-1.084 7.183-1.106-.493.733-4.515-.23-5.564-2.06-2.247-3.788 1.026-5.099 1.692-.086-1.445-.187-2.891-.248-4.338-.093-2.2 1.255-6.83-.113-8.347-2.337-2.59-3.823.431-4.506 2.523-.613 1.884-.697 3.744-3.233 4 .208-2.717-2.258-8.436-1.035-10.727.553-1.035 1.679-.301 2.179-1.46.821-1.902-.524-2.71-1.986-2.771-6.792-.286-1.562 9.134-3.969 11.491-1.099-1.04.072-2.113-1.065-3.596-1.223-1.595-3.173-1.46-4.918-.738-.056-1.613 2.364-12.92-3.08-7.817-1.352 1.271-.974 3.393-1.693 4.886-.696 1.445-2.39 3.598-3.341 4.771-.51-2.067.272-4.63.82-6.666.38-1.415 2.931-5.805 2.387-7.244-1.58-4.167-6.323 2.72-7.572 3.832-1.582 1.41-7.88 6.045-9.901 4.64-.701-.487-.07-2.29-1.027-3.128-.47-.41-2.477-.6-3.05-.548.358-1.494-.346-3.427-2.055-2.91-2.149.65-1.219 3.838-2.58 5.002-2.53 2.164-5.535-2.112-8.245-1.992.414-1.755 3.485-8.062-1.399-6.144-1.246.49-2.13 3.351-2.44 4.54-.792 3.036-.222 3.593-3.509 4.45.257-1.76-.2-3.948.649-5.521.696-1.289 4.305-4.645.462-5.063-4.74-.516-4.274 7.672-4.855 10.44-4.206-2.549-6.974 1.098-9.48 4.252.447-1.419 1.553-15.557-2.965-11.237-1.292 1.237.138 3.066.05 4.478-.078 1.28-.5 2.422-.995 3.618-.796 1.921-1.72 3.887-2.974 5.524-1.573 2.059-1.015 2.22-2.82.823-2.425-1.873-3.577-6.624-3.457-9.525.09-2.16 1.196-6.548-2.384-5.531-3.507.996-1.649 7.974-1.296 10.453.381 2.687.635 5.436.183 8.173-2.984-3.05-3.42 3.302-4.017 4.385-.98 1.777-2.868 2.647-4.335 3.86-.8-2.794 2.405-5.157 1.77-7.38-1.194-4.165-4.571 1.716-5.313 2.87-.619.963-2.635 6.442-3.365 6.933-1.023.69-7.605-2.527-8.27-3.14-1.223-1.125-.778-4.272-2.316-4.99-4.72-2.197-1.932 5.735-1.005 7.375 2.419 4.284 3.516 9.456 2.949 14.504-.858-.302-1.915-1.312-2.468-2.077-1.076-1.49-.685-3.865-1.808-4.987-3.288-3.28-3.673 2.878-3.406 4.791.5 3.588 2.291 4.75 3.778 7.734 1.368 2.75-.445 6.069-.828 9.125-3.429-3.3-18.195-.543-14.396 4.502 1.978 2.633 4.318-2.377 6.598-2.25 4.083.225 6.235 5.295 5.967 8.846-.497-1.898-2.422-3.761-3.746-1.444-.897 1.573.635 4.26 1.374 5.823-.906-.444-5.372-2.52-6.246-2.161-3.44 1.414 1.3 4.151 2.537 4.698 4.224 1.868 6.887 3.92 8.2 8.992-2.367-.757-1.955-1.878-3.552-3.043-1.466-1.07-1.74-.518-3.09-.868-2.362-.611-5.441-1.427-8.11-.318-1.97.819-5.287 3.31-5.906 5.65-.757 2.874.844 3.606 2.904 2.143 2.45-1.739 2.897-5.105 6.583-4.96 1.769.068 3.52.995 4.64 2.325.835.993 1.323 2.43 2.12 3.495.703.94 2.564 2.259 2.957 3.254 1.418 3.595-1.276 6.795-3.083 9.314-.419-.554-3.477-1.758-4.11-1.878-2.94-.561-4.037.798-2.199 3.512.58.856 1.798 1.216 2.436 1.994.711.87 1.112 2.2 1.818 3.144 1.393 1.863 3.115 2.822 4.778 4.322-.613.41-.546-.624-1.102-.41-.404.156-1.107-.155-1.617.014-.828.275-.718 1.717-1.248 1.929-3.299 1.314-6.627-3.615-9.586-3.775-1.614-.088-2.975.994-2.2 3.022.538 1.412 2.87 2.178 4.036 2.767 3.246 1.644 6.478 2.868 9.948 1.607 2.797 2.438 6.159 3.64 9.674 3.675-2.011.998-4 2.235-4.702 4.721-1.189-1.23-4.108-6.952-5.633-2.462-1.045 3.087 3.723 6.871 5.92 8.262-2.555.755-4.677.907-7.277.607-1.357-.156-4.337-1.974-3.238 1.748 1.182 4.016 8.24 2.21 10.48 1.516.083-1.198-10.77 12.108-3.158 9.489 2.176-.748 2.385-5 5.418-5.373 3.503-.43 3.855 3.077 5.882 5.646 1.01 1.282 5.67 4.165 5.449 5.265-.191.952-2.75 1.496-3.293 2.828-.633 1.55-.347 2.746.532 4.078 1.538 2.333 4.36 2.691 6.592 3.604 3.164 1.295 4.31 2.867 5.73 6.217-2.502.12-9.62 7.36-5.258 8.648 1.625.48 1.372-.966 2.049-1.765.273-.516.547-1.03.821-1.545.458-1.198.965-1.271 1.52-.22.123-.031 1.61.388 1.947.409 1.708.105 2.85-1.192 4.266-1.893 1.023-.506 2.024-.418 2.795-1.586-.089.135.554-2.51.565-2.536.276-.637.985-.547 1.31-1.234-8.749-9.085-14.457-21.119-15.489-34.464C36.42 132.776 33 128.288 33 123v-13c0-5.035 3.1-9.345 7.497-11.126.531.374 1.27 0 1.503-.842-.463-1.506 3.296-27.854 13-34.876 3.618-2.438 23.008-2.619 42.313-2.606 19.096.014 38.108.195 41.687 2.606 9.704 7.022 13.463 33.37 13 34.876.233.843.972 1.216 1.503.842z" id="m"/></defs><mask id="j" fill="#fff"><use xlink:href="#i"/></mask><g mask="url(#j)"><g transform="translate(48 72)"><defs><path d="M105.018 94.13c-3.868 5.591-6.76 1.817-10.88-1.254-2.481-1.849-6.177-4.148-9.634-4.035-3.456-.113-7.152 2.186-9.633 4.035-4.12 3.07-7.013 6.845-10.88 1.254-2.903-4.198-1.688-11.256 1.024-15.227 3.859-5.652 9.094-2.918 14.947-3.563 1.592-.175 3.19-.617 4.542-1.34 1.352.723 2.95 1.165 4.542 1.34 5.854.645 11.089-2.089 14.948 3.563 2.712 3.97 3.926 11.03 1.024 15.227M140.39 26c-3.424 14.075-4.998 28.434-7.481 42.671a319.166 319.166 0 01-1.685 8.879c-.127.62-.251 2.923-.862 3.214-1.851.884-5.624-3.817-6.633-4.879-2.533-2.666-5.045-5.356-8.13-7.448-6.235-4.227-13.535-6.726-21.13-7.32-3.178-.248-7.475.186-10.47 1.993-2.995-1.807-7.292-2.24-10.47-1.992-7.596.593-14.895 3.092-21.13 7.32-3.085 2.091-5.597 4.781-8.13 7.447-1.01 1.062-4.782 5.763-6.633 4.88-.61-.292-.735-2.595-.862-3.215a319.164 319.164 0 01-1.685-8.879C32.607 54.434 31.034 40.075 27.61 26c-.997 0-1.871 18.748-1.983 20.495-.452 7.094-.98 14.03-.305 21.131 1.164 12.249 2.377 27.608 11.71 36.962 8.434 8.451 20.678 10.218 31.24 15.553 1.36.687 3.163 1.535 5.108 2.23 2.049 1.563 6.113 2.629 10.794 2.629 4.91 0 9.142-1.173 11.08-2.862a47.143 47.143 0 004.475-1.997c10.56-5.336 22.805-7.102 31.238-15.553 9.334-9.354 10.547-24.713 11.712-36.962.674-7.1.146-14.037-.306-21.131C142.26 44.748 141.387 26 140.39 26z" id="k"/></defs><mask id="l" fill="#fff"><use xlink:href="#k"/></mask><use fill="#252E32" xlink:href="#k"/><g mask="url(#l)" fill="#B58143"><path d="M-32 0h264v244H-32z"/></g></g><g transform="translate(35)"><mask id="n" fill="#fff"><use xlink:href="#m"/></mask><use fill="#2E3257" xlink:href="#m"/><g mask="url(#n)" fill="#F59797"><path d="M0 0h264v280H0z"/></g></g><g transform="translate(61 85)"><defs><filter x="-.8%" y="-2%" width="101.5%" height="108%" filterUnits="objectBoundingBox" id="o"><feOffset dy="2" in="SourceAlpha" result="shadowOffsetOuter1"/><feColorMatrix values="0 0 0 0 0 0 0 0 0 0 0 0 0 0 0 0 0 0 0.16 0" in="shadowOffsetOuter1" result="shadowMatrixOuter1"/><feMerge><feMergeNode in="shadowMatrixOuter1"/><feMergeNode in="SourceGraphic"/></feMerge></filter></defs><g filter="url(#o)" transform="translate(5 2)" fill-rule="nonzero"><path d="M66 11.111c-11.037 0-12.63-9.084-35.33-10.37C7.987-.283.816 6.449.777 11.11c.037 4.293-1.128 15.45 13.589 28.519 14.772 15.512 29.905 10.252 35.33 5.185C55.134 42.473 61.34 21.46 66 21.48c4.66.022 10.865 20.992 16.306 23.334 5.424 5.067 20.557 10.327 35.33-5.185 14.716-13.069 13.55-24.226 13.588-28.519-.04-4.662-7.21-11.394-29.895-10.37C78.63 2.027 77.037 11.11 66 11.11z" fill="#F4F4F4"/><path d="M55.13 21.481c.38-7.658-12.914-15.839-27.177-15.555-14.256.299-16.111 9.453-16.306 12.963-.349 8.133 8.367 26.415 24.459 25.926 16.091-.51 18.803-18.28 19.023-23.334zm21.74 0c-.38-7.658 12.914-15.839 27.177-15.555 14.256.299 16.111 9.453 16.306 12.963.349 8.133-8.367 26.415-24.459 25.926-16.091-.51-18.803-18.28-19.023-23.334z" fill="#2F383B"/></g></g></g></g></g></svg>