<svg width="264" height="280" xmlns="http://www.w3.org/2000/svg" xmlns:xlink="http://www.w3.org/1999/xlink"><defs><path d="M12 160c0 66.274 53.726 120 120 120s120-53.726 120-120h12V0H0v160h12z" id="c"/><path d="M124 144.611V163h4c39.765 0 72 32.235 72 72v9H0v-9c0-39.765 32.235-72 72-72h4v-18.389c-17.237-8.189-29.628-24.924-31.695-44.73C38.48 99.058 34 94.052 34 88V74c0-5.946 4.325-10.882 10-11.834V56c0-30.928 25.072-56 56-56s56 25.072 56 56v6.166c5.675.952 10 5.888 10 11.834v14c0 6.052-4.48 11.058-10.305 11.881-2.067 19.806-14.458 36.541-31.695 44.73z" id="e"/><circle id="a" cx="120" cy="120" r="120"/></defs><g fill="none" fill-rule="evenodd"><g transform="translate(12 40)"><mask id="b" fill="#fff"><use xlink:href="#a"/></mask><use fill="#E6E6E6" xlink:href="#a"/><g mask="url(#b)" fill="#65C9FF"><path d="M0 0h240v240H0z"/></g></g><mask id="d" fill="#fff"><use xlink:href="#c"/></mask><g mask="url(#d)"><g transform="translate(32 36)"><mask id="f" fill="#fff"><use xlink:href="#e"/></mask><use fill="#D0C6AC" xlink:href="#e"/><g mask="url(#f)" fill="#FD9841"><path d="M0 0h264v280H0z"/></g><path d="M156 79v23c0 30.928-25.072 56-56 56s-56-25.072-56-56V79v15c0 30.928 25.072 56 56 56s56-25.072 56-56V79z" fill-opacity=".1" fill="#000" mask="url(#f)"/></g><g transform="translate(0 170)"><defs><path d="M165.624 29.268C202.76 32.138 232 63.18 232 101.052V110H32v-8.948c0-38.217 29.775-69.48 67.393-71.855A14.107 14.107 0 0099 32.5C99 44.374 113.998 54 132.5 54c18.502 0 33.5-9.626 33.5-21.5 0-1.098-.128-2.178-.376-3.232z" id="g"/></defs><mask id="h" fill="#fff"><use xlink:href="#g"/></mask><use fill="#E6E6E6" xlink:href="#g"/><g mask="url(#h)" fill="#B1E2FF"><path d="M0 0h264v110H0z"/></g><g mask="url(#h)" fill="#FFF"><path d="M142.282 77.929c-.298 2.777-5.693 4.274-7.672 2.448-.912-.842-.927-2.574-1.128-3.702-.38-2.133-.656-4.258-.751-6.423-.058-1.325-.406-2.385 1.044-2.582.883-.12 1.793.468 2.515.933 2.447 1.573 6.33 6.138 5.992 9.326m-12.4-5.853c.284 2.825 1.32 7.739-.936 10.105-2.016 2.115-6.16.018-6.783-2.473-.773-3.09 2.275-6.78 4.145-8.87.574-.641 1.844-2.412 2.836-1.82.382.228.693 2.612.737 3.058m1.44 11.03c.647-1.523 6.913 3.019 3.953 5.18-.482.352-4.16 1.465-4.864.941-1.485-1.103.43-4.964.911-6.12m19.004-7.58c-.443-15.476-20.26-19.84-30.85-11.023-4.048 3.372-6.362 7.5-6.468 12.779-.09 4.471.619 8.689 4.034 11.764 1.481 1.333 2.46 2.149 3.245 3.97.824 1.906 1.2 4.335 2.742 5.833.85.825 2.09 1.492 3.266.96 2.162-.98 1.47-3.978 2.125-5.65 2.037 4.97 7.211 6.554 8.15.25 1.031 1.819 3.726 4.2 5.7 2.21.812-.82.934-2.15 1.072-3.227.245-1.912-.18-2.664 1.355-3.975 4.039-3.45 5.773-8.672 5.63-13.891"/></g></g><g fill="#000"><path d="M118 150c0 5.372 6.158 9 14 9s14-3.628 14-9c0-1.105-.95-2-2-2-1.293 0-1.87.905-2 2-1.242 2.938-4.317 4.716-10 5-5.683-.284-8.758-2.062-10-5-.13-1.095-.707-2-2-2-1.05 0-2 .895-2 2z" fill-opacity=".6" fill-rule="nonzero"/><path d="M120 130c0 4.418 5.373 8 12 8s12-3.582 12-8" fill-opacity=".16"/><path d="M105 115.2l5.5 5.5c.5.4 1.2.4 1.6 0l1.6-1.6c.4-.5.4-1.2 0-1.6l-5.5-5.5 5.5-5.5c.4-.5.4-1.2 0-1.6l-1.6-1.6c-.5-.4-1.2-.4-1.6 0l-5.5 5.5-5.5-5.5c-.5-.4-1.2-.4-1.6 0l-1.6 1.6c-.4.4-.4 1.1 0 1.6l5.5 5.5-5.5 5.5c-.4.5-.4 1.2 0 1.6l1.6 1.6c.5.4 1.2.4 1.6 0l5.5-5.5zm54 0l5.5 5.5c.5.4 1.2.4 1.6 0l1.6-1.6c.4-.5.4-1.2 0-1.6l-5.5-5.5 5.5-5.5c.4-.5.4-1.2 0-1.6l-1.6-1.6c-.5-.4-1.2-.4-1.6 0l-5.5 5.5-5.5-5.5c-.5-.4-1.2-.4-1.6 0l-1.6 1.6c-.4.4-.4 1.1 0 1.6l5.5 5.5-5.5 5.5c-.4.5-.4 1.2 0 1.6l1.6 1.6c.5.4 1.2.4 1.6 0l5.5-5.5z" fill-opacity=".6" fill-rule="nonzero"/><path d="M114.66 93.09c-4.998.362-9.923.086-14.918-.122-3.83-.158-7.717-.681-11.374 1.012-.7.324-4.53 2.28-4.44 3.349.07.855 3.935 2.191 4.63 2.436 3.67 1.29 7.181.896 10.954.67 4.628-.278 9.236-.074 13.861-.214 3.116-.093 7.917-.62 9.457-4.398.464-1.137.105-3.413-.36-4.657-.185-.496-.72-.683-1.125-.397-1.45 1.023-4.261 2.146-6.685 2.321m34.68 0c4.998.362 9.923.086 14.918-.122 3.83-.158 7.717-.681 11.374 1.012.7.324 4.53 2.28 4.44 3.349-.07.855-3.935 2.191-4.63 2.436-3.67 1.29-7.181.896-10.954.67-4.628-.278-9.236-.074-13.861-.214-3.116-.093-7.917-.62-9.457-4.398-.464-1.137-.105-3.413.36-4.657.185-.496.72-.683 1.125-.397 1.45 1.023 4.261 2.146 6.685 2.321" fill-opacity=".6"/></g><defs><path id="i" d="M0 0h264v280H0z"/><path d="M185.832 73.929c1.757.988 3.148 10.899 3.216 14.689.042 2.338.08 11.256-2.394 10.485-.753-.235-1.902-4.956-2.066-7.719-.163-2.763-1.733-12.164-4.141-16.49-.55-.988-2.126-2.723-1.445-3.56.844-1.036 1.664-.434 2.695-.02 1.115.45 3.937 2.504 4.135 2.615zm.805-2.972c-.746.962-5.841-1.74-7.966-2.913-17.845-9.86-21.31-12.995-49.425-12.586-28.116.409-47.379 13.582-48.462 14.93-.754.937-1.716 3.44-2.508 10.413-.791 6.972.22 19.477-2.646 19.462-2.438-.013-2.97-23.786-1.916-33.217.161-1.448.784-4.038.333-5.34-.394-1.138-2.322-1.135-2.014-3.03.35-2.159 2.525-1.087 3.473-2.119 1.795-1.954-.974-2.417-1.433-4.126-.682-2.542 1.29-3.197 3.067-4 1.966-.887 1.71-.108 3.306-1.846-2.131-1.563-2.902-3.691.016-4.833 1.24-.485 4.465.157 5.436-.572.253-.19.353-1.28.51-1.502 1.55-2.219 1.168-3.825 1.01-6.316-.129-2.038-.112-3.909 2.329-4.112 1.628-.136 2.952 1.194 4.411 1.586 1.619.435 1.01.752 2.279-.121 2.226-1.533.711-4.52 2.476-6.303 2.423-2.446 4.01 1.14 5.956 1.41 4.222.588 2.867-3.7 5.367-5.272 2.988-1.876 3.277 2.251 5.143 2.398 1.617.127 4.529-2.993 5.938-3.575 4.183-1.726 6.255 3.13 10.237 2.511 2.89-.45 3.67-.816 6.277.828 2.53 1.595 3.132.454 5.998.432 2.025-.016 3.265 1.676 4.959 1.853.844.088 1.653-.792 2.56-.737 3.237.197 3.442 4.383 6.014 5.536 2.35 1.053 5.112-.427 7.445-.7 5.69-.668 1.793 4.647 1.954 7.819 2.233.52 4.5-1.564 6.724-1.18 3.502.604 2.18 4.233 1.368 6.68 2.427-.044 8.76-2.737 10.332.707.81 1.776-1.078 4.147-1.047 5.952.043 2.542 1.91 4.645 2.571 7.05.892 3.247 2.163 11.95-.072 14.833z" id="m"/></defs><mask id="j" fill="#fff"><use xlink:href="#i"/></mask><g mask="url(#j)"><g transform="translate(48 72)"><defs><path d="M101.428 98.169c-2.513 2.294-5.19 3.325-8.575 2.604-.582-.124-2.957-4.538-8.853-4.538-5.897 0-8.27 4.414-8.853 4.538-3.385.721-6.062-.31-8.576-2.604-4.725-4.313-8.654-10.26-6.293-16.75 1.23-3.382 3.232-7.095 6.873-8.173 3.887-1.15 9.346-.002 13.264-.788 1.27-.254 2.656-.707 3.585-1.458.929.75 2.316 1.204 3.585 1.458 3.918.786 9.376-.362 13.264.788 3.64 1.078 5.642 4.79 6.873 8.173 2.361 6.49-1.568 12.437-6.294 16.75M140.081 26c-3.41 8.4-2.093 18.858-2.724 27.676-.513 7.167-2.02 17.91-8.384 22.539-3.255 2.367-9.179 6.345-13.431 5.235-2.927-.764-3.24-9.16-7.087-12.303-4.363-3.565-9.812-5.131-15.306-4.89-2.37.105-7.165.08-9.15 1.903-1.983-1.823-6.777-1.798-9.148-1.902-5.494-.242-10.943 1.324-15.306 4.889-3.847 3.143-4.16 11.54-7.087 12.303-4.252 1.11-10.176-2.868-13.431-5.235-6.365-4.63-7.87-15.372-8.384-22.54-.63-8.817.686-19.275-2.724-27.675-1.66 0-.565 16.129-.565 16.129v20.356c.032 15.288 9.581 38.17 30.754 46.908C63.286 111.53 75.015 115 84 115s20.714-3.14 25.892-5.277c21.173-8.737 30.722-31.95 30.754-47.238V42.13S141.74 26 140.081 26" id="k"/></defs><mask id="l" fill="#fff"><use xlink:href="#k"/></mask><use fill="#331B0C" xlink:href="#k"/><g mask="url(#l)" fill="#724133"><path d="M-32 0h264v244H-32z"/></g></g><mask id="n" fill="#fff"><use xlink:href="#m"/></mask><use fill="#2E3257" xlink:href="#m"/><g mask="url(#n)" fill="#E8E1E1"><path d="M0 0h264v280H0z"/></g><g transform="translate(61 85)"><defs><filter x="-.8%" y="-2%" width="101.5%" height="108%" filterUnits="objectBoundingBox" id="o"><feOffset dy="2" in="SourceAlpha" result="shadowOffsetOuter1"/><feColorMatrix values="0 0 0 0 0 0 0 0 0 0 0 0 0 0 0 0 0 0 0.16 0" in="shadowOffsetOuter1" result="shadowMatrixOuter1"/><feMerge><feMergeNode in="shadowMatrixOuter1"/><feMergeNode in="SourceGraphic"/></feMerge></filter></defs><g filter="url(#o)" transform="translate(5 2)" fill-rule="nonzero"><path d="M66 11.111c-11.037 0-12.63-9.084-35.33-10.37C7.987-.283.816 6.449.777 11.11c.037 4.293-1.128 15.45 13.589 28.519 14.772 15.512 29.905 10.252 35.33 5.185C55.134 42.473 61.34 21.46 66 21.48c4.66.022 10.865 20.992 16.306 23.334 5.424 5.067 20.557 10.327 35.33-5.185 14.716-13.069 13.55-24.226 13.588-28.519-.04-4.662-7.21-11.394-29.895-10.37C78.63 2.027 77.037 11.11 66 11.11z" fill="#F4F4F4"/><path d="M55.13 21.481c.38-7.658-12.914-15.839-27.177-15.555-14.256.299-16.111 9.453-16.306 12.963-.349 8.133 8.367 26.415 24.459 25.926 16.091-.51 18.803-18.28 19.023-23.334zm21.74 0c-.38-7.658 12.914-15.839 27.177-15.555 14.256.299 16.111 9.453 16.306 12.963.349 8.133-8.367 26.415-24.459 25.926-16.091-.51-18.803-18.28-19.023-23.334z" fill="#2F383B"/></g></g></g></g></g></svg>