<svg width="264" height="280" xmlns="http://www.w3.org/2000/svg" xmlns:xlink="http://www.w3.org/1999/xlink"><defs><path d="M12 160c0 66.274 53.726 120 120 120s120-53.726 120-120h12V0H0v160h12z" id="c"/><path d="M124 144.611V163h4c39.765 0 72 32.235 72 72v9H0v-9c0-39.765 32.235-72 72-72h4v-18.389c-17.237-8.189-29.628-24.924-31.695-44.73C38.48 99.058 34 94.052 34 88V74c0-5.946 4.325-10.882 10-11.834V56c0-30.928 25.072-56 56-56s56 25.072 56 56v6.166c5.675.952 10 5.888 10 11.834v14c0 6.052-4.48 11.058-10.305 11.881-2.067 19.806-14.458 36.541-31.695 44.73z" id="e"/><circle id="a" cx="120" cy="120" r="120"/></defs><g fill="none" fill-rule="evenodd"><g transform="translate(12 40)"><mask id="b" fill="#fff"><use xlink:href="#a"/></mask><use fill="#E6E6E6" xlink:href="#a"/><g mask="url(#b)" fill="#65C9FF"><path d="M0 0h240v240H0z"/></g></g><mask id="d" fill="#fff"><use xlink:href="#c"/></mask><g mask="url(#d)"><g transform="translate(32 36)"><mask id="f" fill="#fff"><use xlink:href="#e"/></mask><use fill="#D0C6AC" xlink:href="#e"/><g mask="url(#f)" fill="#AE5D29"><path d="M0 0h264v280H0z"/></g><path d="M156 79v23c0 30.928-25.072 56-56 56s-56-25.072-56-56V79v15c0 30.928 25.072 56 56 56s56-25.072 56-56V79z" fill-opacity=".1" fill="#000" mask="url(#f)"/></g><g transform="translate(0 170)"><defs><path d="M108 13.07c-17.919 2.006-31.72 7.482-31.996 21.575C50.146 45.568 32 71.165 32 100.999V110h200v-9c0-29.835-18.146-55.432-44.004-66.355-.276-14.093-14.077-19.57-31.996-21.574V32c0 13.255-10.745 24-24 24s-24-10.745-24-24V13.07z" id="g"/></defs><mask id="h" fill="#fff"><use xlink:href="#g"/></mask><use fill="#B7C1DB" xlink:href="#g"/><g mask="url(#h)" fill="#25557C"><path d="M0 0h264v110H0z"/></g><path d="M102 61.74V110h-7V58.15a64.54 64.54 0 007 3.59zm67-3.59V98.5a3.5 3.5 0 11-7 0V61.74a64.54 64.54 0 007-3.59z" fill="#F4F4F4" mask="url(#h)"/><path d="M90.96 12.724C75.91 15.571 65.5 21.243 65.5 32.308 65.5 52.02 98.538 68 132 68s66.5-15.98 66.5-35.692c0-11.065-10.41-16.737-25.46-19.584 9.085 3.35 14.96 8.982 14.96 18.353C188 51.469 160.179 68 132 68S76 51.469 76 31.077c0-9.37 5.875-15.003 14.96-18.353z" fill-opacity=".16" fill="#000" mask="url(#h)"/></g><g fill="#000"><g transform="translate(78 134)"><defs><path d="M34.008 12.602c1.12 10.49 4.227 19.392 19.988 19.398 15.762.006 18.92-8.958 19.998-19.495.087-.848-.82-1.505-1.957-1.505-6.686 0-9.367 1.495-18.048 1.5-8.68.005-13.232-1.5-17.897-1.5-1.143 0-2.196.552-2.084 1.602z" id="i"/><path d="M59.917 36H60a6 6 0 1012 0v-5a6 6 0 00-6-6H42a6 6 0 00-6 6v7a6 6 0 1012 0v-2h.083a6.002 6.002 0 0111.834 0z" id="k"/><filter x="-1.4%" y="-2.6%" width="102.8%" height="105.3%" filterUnits="objectBoundingBox" id="l"><feOffset dy="-1" in="SourceAlpha" result="shadowOffsetInner1"/><feComposite in="shadowOffsetInner1" in2="SourceAlpha" operator="arithmetic" k2="-1" k3="1" result="shadowInnerInner1"/><feColorMatrix values="0 0 0 0 0 0 0 0 0 0 0 0 0 0 0 0 0 0 0.1 0" in="shadowInnerInner1"/></filter></defs><mask id="j" fill="#fff"><use xlink:href="#i" transform="matrix(1 0 0 -1 0 43)"/></mask><use fill-opacity=".7" transform="matrix(1 0 0 -1 0 43)" xlink:href="#i"/><rect fill="#FFF" mask="url(#j)" x="39" width="31" height="16" rx="5"/><use fill="#88C553" xlink:href="#k"/><use filter="url(#l)" xlink:href="#k"/></g><path d="M120 130c0 4.418 5.373 8 12 8s12-3.582 12-8" fill-opacity=".16"/><g transform="translate(76 90)"><defs><path d="M14 14.048c9.61 0 14 4.451 14-2.486C28 4.624 21.732 0 14 0S0 4.624 0 11.562c0 6.937 4.39 2.486 14 2.486z" id="m"/><path d="M14 14.048c9.61 0 14 4.451 14-2.486C28 4.624 21.732 0 14 0S0 4.624 0 11.562c0 6.937 4.39 2.486 14 2.486z" id="o"/></defs><g transform="translate(16 13)"><mask id="n" fill="#fff"><use xlink:href="#m"/></mask><use fill="#FFF" xlink:href="#m"/><circle fill-opacity=".7" mask="url(#n)" cx="14" cy="10" r="6"/></g><g transform="translate(68 13)"><mask id="p" fill="#fff"><use xlink:href="#o"/></mask><use fill="#FFF" xlink:href="#o"/><circle fill-opacity=".7" mask="url(#p)" cx="14" cy="10" r="6"/></g></g><path d="M91.976 99.128c1.495-9.523 14.083-16.02 23.188-11.827a2 2 0 001.672-3.633c-11.487-5.29-26.9 2.664-28.812 14.84a2 2 0 103.952.62zm80.048 0c-1.495-9.523-14.082-16.02-23.187-11.827a2 2 0 01-1.673-3.633c11.487-5.29 26.9 2.664 28.812 14.84a2 2 0 01-3.952.62z" fill-rule="nonzero" fill-opacity=".6"/></g><defs><path id="q" d="M0 0h264v280H0z"/><path d="M66.042 77.075C71.68 45.205 99.513 21 133 21c37.555 0 68 30.445 68 68v30.751c.875 9.803 1.694 16.671 2.456 20.603 1.377 7.104 5.694 4.761 5.694 14.866s-4.328 13.5-4.347 22.485c-.019 8.986 15.397 16.131 15.397 27.538 0 11.406-7.074 65.233-77.622 65.233-15.07 0-27.907-4.287-38.51-12.862.682 6.49 1.326 13.952 1.932 22.386H59c.932-23.771-7.284-37.064-7.284-63.554 0-26.49 13.637-65.018 13.284-74.446.02-.582.04-1.272.062-2.068A69.174 69.174 0 0165 137V89c0-3.976.341-7.872.996-11.661L66 77l.042.075zM132.5 53C102.4 53 78 77.4 78 107.5v23c0 30.1 24.4 54.5 54.5 54.5h1c30.1 0 54.5-24.4 54.5-54.5v-23c0-30.1-24.4-54.5-54.5-54.5h-1z" id="s"/></defs><mask id="r" fill="#fff"><use xlink:href="#q"/></mask><g mask="url(#r)"><g transform="translate(-1)"><mask id="t" fill="#fff"><use xlink:href="#s"/></mask><use fill="#3B6BAD" xlink:href="#s"/><g mask="url(#t)" fill="#FFAFB9"><path d="M0 0h264v280H0z"/></g><path d="M72.074 104.96A61.351 61.351 0 0171 93.5C71 59.534 98.758 32 133 32c34.242 0 62 27.534 62 61.5 0 3.916-.369 7.747-1.074 11.46C192.34 72.683 165.67 47 133 47s-59.341 25.683-60.926 57.96z" fill-opacity=".5" fill="#FFF" mask="url(#t)"/><path d="M187.93 104.695A54.756 54.756 0 01189 115.5v23c0 30.1-24.4 54.5-54.5 54.5h-3c-30.1 0-54.5-24.4-54.5-54.5v-23c0-3.7.369-7.312 1.07-10.805-.046.93-.07 1.864-.07 2.805v23c0 30.1 24.4 54.5 54.5 54.5h1c30.1 0 54.5-24.4 54.5-54.5v-23c0-.94-.024-1.876-.07-2.805zm-73.763 102.3c6.484 4.986 21.496 6.713 38.238 3.761 16.74-2.951 30.257-9.71 34.645-16.612.068.253.125.508.171.767 1.71 9.695-13.236 20.434-33.38 23.987-20.146 3.552-37.863-1.428-39.573-11.123a8.75 8.75 0 01-.101-.78zm11.868 28.926c8.192 5.654 24.387 5.923 41.069-.149 16.682-6.072 28.915-16.687 31.556-26.284.143.32.275.647.396.98 4.527 12.436-8.077 28.441-28.151 35.748-20.074 7.306-40.017 3.147-44.544-9.29-.12-.332-.23-.667-.326-1.005z" fill-opacity=".16" fill="#000" opacity=".9" mask="url(#t)"/><g transform="translate(62 85)"><defs><filter x="-.8%" y="-2.4%" width="101.5%" height="109.8%" filterUnits="objectBoundingBox" id="u"><feOffset dy="2" in="SourceAlpha" result="shadowOffsetOuter1"/><feColorMatrix values="0 0 0 0 0 0 0 0 0 0 0 0 0 0 0 0 0 0 0.2 0" in="shadowOffsetOuter1" result="shadowMatrixOuter1"/><feMerge><feMergeNode in="shadowMatrixOuter1"/><feMergeNode in="SourceGraphic"/></feMerge></filter></defs><g filter="url(#u)" transform="translate(6 7)" fill="#252C2F" fill-rule="nonzero"><path d="M34 41h-2.758C17.315 41 9 33.336 9 20.5 9 10.127 10.817 0 32.53 0h2.94C57.183 0 59 10.127 59 20.5 59 32.569 48.721 41 34 41zM32.385 6C13 6 13 12.841 13 21.502 13 28.572 16.116 37 30.97 37H34c12.365 0 21-6.373 21-15.498C55 12.84 55 6 35.615 6h-3.23zM96 41h-2.758C79.315 41 71 33.336 71 20.5 71 10.127 72.817 0 94.53 0h2.94C119.183 0 121 10.127 121 20.5 121 32.569 110.721 41 96 41zM94.385 6C75 6 75 12.841 75 21.502 75 28.572 78.12 37 92.97 37H96c12.365 0 21-6.373 21-15.498C117 12.84 117 6 97.615 6h-3.23z"/><path d="M2.955 5.772C3.645 5.096 11.21 0 32.5 0c17.851 0 21.63 1.853 27.35 4.652l.419.207c.398.14 2.431.83 4.81.907a16.998 16.998 0 004.563-.869C76.17 1.722 82.562 0 97.5 0c21.29 0 28.854 5.096 29.545 5.772 1.634 0 2.955 1.29 2.955 2.885v2.886c0 1.596-1.32 2.886-2.955 2.886 0 0-6.901 0-6.901 2.886 0 2.885-1.962-4.176-1.962-5.772v-2.81c-3.603-1.38-10.054-3.947-20.682-3.947-11.842 0-17.739 2.1-22.798 4.185l.057.137-.003 1.986-2.217 5.35L69.8 15.36c-.244-.097-.772-.27-1.504-.451-2.04-.503-4.137-.656-5.992-.276-.68.14-1.312.35-1.891.633l-2.643 1.29-2.643-5.16.117-2.295.08-.195c-4.362-2.033-8.385-4.12-22.824-4.12-10.628 0-17.078 2.565-20.682 3.944v2.812c0 1.596-2.954 8.657-2.954 5.772 0-2.886-5.91-2.886-5.91-2.886-1.63 0-2.954-1.29-2.954-2.886V8.657c0-1.595 1.324-2.885 2.955-2.885z"/></g></g></g></g></g></g></svg>