<svg width="264" height="280" xmlns="http://www.w3.org/2000/svg" xmlns:xlink="http://www.w3.org/1999/xlink"><defs><path d="M12 160c0 66.274 53.726 120 120 120s120-53.726 120-120h12V0H0v160h12z" id="c"/><path d="M124 144.611V163h4c39.765 0 72 32.235 72 72v9H0v-9c0-39.765 32.235-72 72-72h4v-18.389c-17.237-8.189-29.628-24.924-31.695-44.73C38.48 99.058 34 94.052 34 88V74c0-5.946 4.325-10.882 10-11.834V56c0-30.928 25.072-56 56-56s56 25.072 56 56v6.166c5.675.952 10 5.888 10 11.834v14c0 6.052-4.48 11.058-10.305 11.881-2.067 19.806-14.458 36.541-31.695 44.73z" id="e"/><circle id="a" cx="120" cy="120" r="120"/></defs><g fill="none" fill-rule="evenodd"><g transform="translate(12 40)"><mask id="b" fill="#fff"><use xlink:href="#a"/></mask><use fill="#E6E6E6" xlink:href="#a"/><g mask="url(#b)" fill="#65C9FF"><path d="M0 0h240v240H0z"/></g></g><mask id="d" fill="#fff"><use xlink:href="#c"/></mask><g mask="url(#d)"><g transform="translate(32 36)"><mask id="f" fill="#fff"><use xlink:href="#e"/></mask><use fill="#D0C6AC" xlink:href="#e"/><g mask="url(#f)" fill="#F8D25C"><path d="M0 0h264v280H0z"/></g><path d="M156 79v23c0 30.928-25.072 56-56 56s-56-25.072-56-56V79v15c0 30.928 25.072 56 56 56s56-25.072 56-56V79z" fill-opacity=".1" fill="#000" mask="url(#f)"/></g><g transform="translate(0 170)"><defs><path d="M108 13.07c-17.919 2.006-31.72 7.482-31.996 21.575C50.146 45.568 32 71.165 32 100.999V110h200v-9c0-29.835-18.146-55.432-44.004-66.355-.276-14.093-14.077-19.57-31.996-21.574V32c0 13.255-10.745 24-24 24s-24-10.745-24-24V13.07z" id="g"/></defs><mask id="h" fill="#fff"><use xlink:href="#g"/></mask><use fill="#B7C1DB" xlink:href="#g"/><g mask="url(#h)" fill="#3C4F5C"><path d="M0 0h264v110H0z"/></g><path d="M102 61.74V110h-7V58.15a64.54 64.54 0 007 3.59zm67-3.59V98.5a3.5 3.5 0 11-7 0V61.74a64.54 64.54 0 007-3.59z" fill="#F4F4F4" mask="url(#h)"/><path d="M90.96 12.724C75.91 15.571 65.5 21.243 65.5 32.308 65.5 52.02 98.538 68 132 68s66.5-15.98 66.5-35.692c0-11.065-10.41-16.737-25.46-19.584 9.085 3.35 14.96 8.982 14.96 18.353C188 51.469 160.179 68 132 68S76 51.469 76 31.077c0-9.37 5.875-15.003 14.96-18.353z" fill-opacity=".16" fill="#000" mask="url(#h)"/></g><g fill="#000"><g transform="translate(78 134)"><path d="M44.19 16.106c-.172-5.11-4.398-9.309-9.896-10.106 3.366 1.959 5.686 5.495 5.686 9.677 0 5.668-5.473 10.568-11.803 10.568H28a13 13 0 004.392.755c5.322 0 9.821-3.153 11.294-7.486 2.475 2.156 6.177 3.525 10.314 3.525 4.137 0 7.84-1.37 10.314-3.525C65.787 23.847 70.286 27 75.608 27c1.552 0 3.034-.268 4.392-.756l-.177.001c-6.33 0-11.803-4.9-11.803-10.568 0-4.182 2.32-7.718 5.686-9.677-5.498.797-9.724 4.996-9.897 10.106-2.564 1.736-6.014 2.8-9.809 2.8-3.795 0-7.245-1.064-9.81-2.8z" opacity=".6" fill-opacity=".6"/><circle fill-opacity=".2" fill="#FF4646" cx="17" cy="15" r="9"/><circle fill-opacity=".2" fill="#FF4646" cx="91" cy="15" r="9"/></g><path d="M120 130c0 4.418 5.373 8 12 8s12-3.582 12-8" fill-opacity=".16"/><path d="M105 115.2l5.5 5.5c.5.4 1.2.4 1.6 0l1.6-1.6c.4-.5.4-1.2 0-1.6l-5.5-5.5 5.5-5.5c.4-.5.4-1.2 0-1.6l-1.6-1.6c-.5-.4-1.2-.4-1.6 0l-5.5 5.5-5.5-5.5c-.5-.4-1.2-.4-1.6 0l-1.6 1.6c-.4.4-.4 1.1 0 1.6l5.5 5.5-5.5 5.5c-.4.5-.4 1.2 0 1.6l1.6 1.6c.5.4 1.2.4 1.6 0l5.5-5.5zm54 0l5.5 5.5c.5.4 1.2.4 1.6 0l1.6-1.6c.4-.5.4-1.2 0-1.6l-5.5-5.5 5.5-5.5c.4-.5.4-1.2 0-1.6l-1.6-1.6c-.5-.4-1.2-.4-1.6 0l-5.5 5.5-5.5-5.5c-.5-.4-1.2-.4-1.6 0l-1.6 1.6c-.4.4-.4 1.1 0 1.6l5.5 5.5-5.5 5.5c-.4.5-.4 1.2 0 1.6l1.6 1.6c.5.4 1.2.4 1.6 0l5.5-5.5z" fill-opacity=".6" fill-rule="nonzero"/><path d="M114.028 87.591c-1.48 8.389-14.09 14.18-23.238 10.432-1.015-.416-2.19.031-2.627.999-.436.968.033 2.09 1.048 2.505 11.444 4.69 26.835-2.38 28.762-13.303.183-1.039-.551-2.023-1.64-2.197-1.09-.175-2.122.525-2.305 1.564zm35.945 0c1.48 8.389 14.09 14.18 23.238 10.432 1.014-.416 2.19.031 2.627.999.436.968-.033 2.09-1.048 2.505-11.444 4.69-26.835-2.38-28.762-13.303-.183-1.039.551-2.023 1.64-2.197 1.09-.175 2.121.525 2.305 1.564z" fill-opacity=".6" fill-rule="nonzero"/></g><defs><path id="i" d="M0 0h264v280H0z"/><path d="M148.86 69c.093 1.321.14 2.655.14 4v38c0 22.34-13.08 41.623-32 50.611v8.706c18.146 1.499 35.721 4.018 46 6.683 9.953-13.56 22.885-26.2 23-51 .085-18.985-27.676-95.572-40-111-8.138-10.188-28.695-13.55-53-14C68.695.55 48.923 6.509 41 16 30.319 28.795-.085 107.015 0 126c.116 24.8 13.048 37.44 23 51 10.279-2.665 27.854-5.184 46-6.683v-8.706C50.08 152.623 37 133.339 37 111V73c0-1.345.047-2.679.14-4h28.234l3.879-21.444L72.058 69h76.801z" id="k"/></defs><mask id="j" fill="#fff"><use xlink:href="#i"/></mask><g mask="url(#j)"><path d="M68.033 76.213c12.938-33.084 26.613-49.626 41.025-49.626.539 0 29.253-.238 48.055-.36C177.767 35.585 192 55.304 192 78.115V93h-82.942l-2.805-23.18-3.88 23.18H68V78.115c0-.637.011-1.27.033-1.902z" fill-opacity=".16" fill="#000"/><g transform="translate(39 19)"><mask id="l" fill="#fff"><use xlink:href="#k"/></mask><use fill="#E6E6E6" xlink:href="#k"/><g mask="url(#l)" fill="#E8E1E1"><path d="M0 0h264v280H0z"/></g></g><g transform="translate(48 72)"><defs><path d="M105.018 94.13c-3.868 5.591-6.76 1.817-10.88-1.254-2.481-1.849-6.177-4.148-9.634-4.035-3.456-.113-7.152 2.186-9.633 4.035-4.12 3.07-7.013 6.845-10.88 1.254-2.903-4.198-1.688-11.256 1.024-15.227 3.859-5.652 9.094-2.918 14.947-3.563 1.592-.175 3.19-.617 4.542-1.34 1.352.723 2.95 1.165 4.542 1.34 5.854.645 11.089-2.089 14.948 3.563 2.712 3.97 3.926 11.03 1.024 15.227M140.39 26c-3.424 14.075-4.998 28.434-7.481 42.671a319.166 319.166 0 01-1.685 8.879c-.127.62-.251 2.923-.862 3.214-1.851.884-5.624-3.817-6.633-4.879-2.533-2.666-5.045-5.356-8.13-7.448-6.235-4.227-13.535-6.726-21.13-7.32-3.178-.248-7.475.186-10.47 1.993-2.995-1.807-7.292-2.24-10.47-1.992-7.596.593-14.895 3.092-21.13 7.32-3.085 2.091-5.597 4.781-8.13 7.447-1.01 1.062-4.782 5.763-6.633 4.88-.61-.292-.735-2.595-.862-3.215a319.164 319.164 0 01-1.685-8.879C32.607 54.434 31.034 40.075 27.61 26c-.997 0-1.871 18.748-1.983 20.495-.452 7.094-.98 14.03-.305 21.131 1.164 12.249 2.377 27.608 11.71 36.962 8.434 8.451 20.678 10.218 31.24 15.553 1.36.687 3.163 1.535 5.108 2.23 2.049 1.563 6.113 2.629 10.794 2.629 4.91 0 9.142-1.173 11.08-2.862a47.143 47.143 0 004.475-1.997c10.56-5.336 22.805-7.102 31.238-15.553 9.334-9.354 10.547-24.713 11.712-36.962.674-7.1.146-14.037-.306-21.131C142.26 44.748 141.387 26 140.39 26z" id="m"/></defs><mask id="n" fill="#fff"><use xlink:href="#m"/></mask><use fill="#252E32" xlink:href="#m"/><g mask="url(#n)" fill="#724133"><path d="M-32 0h264v244H-32z"/></g></g><g transform="translate(61 85)"><defs><filter x="-.8%" y="-2.1%" width="101.6%" height="108.3%" filterUnits="objectBoundingBox" id="o"><feOffset dy="2" in="SourceAlpha" result="shadowOffsetOuter1"/><feColorMatrix values="0 0 0 0 0 0 0 0 0 0 0 0 0 0 0 0 0 0 0.1 0" in="shadowOffsetOuter1"/></filter><path d="M80.465 16.394C84.38 8.46 92.553 3 102 3c8.92 0 16.703 4.866 20.84 12.088a2.52 2.52 0 01.66-.088h8a2.5 2.5 0 110 5h-6.537A23.998 23.998 0 01126 27c0 13.255-10.745 24-24 24S78 40.255 78 27c0-1.422.124-2.815.36-4.169C78.277 18.455 74.915 15 70.863 15c-3.736 0-6.887 2.94-7.42 6.83.365 1.665.558 3.395.558 5.17 0 13.255-10.745 24-24 24S16 40.255 16 27c0-2.435.363-4.785 1.037-7H10.5a2.5 2.5 0 110-5h8c.228 0 .45.03.66.088C23.297 7.866 31.08 3 40 3c9.352 0 17.455 5.35 21.416 13.155C63.493 13.039 66.949 11 70.862 11c4.013 0 7.545 2.144 9.603 5.394zM40 47c11.046 0 20-8.954 20-20S51.046 7 40 7s-20 8.954-20 20 8.954 20 20 20zm62 0c11.046 0 20-8.954 20-20s-8.954-20-20-20-20 8.954-20 20 8.954 20 20 20z" id="p"/></defs><use fill="#000" filter="url(#o)" xlink:href="#p"/><use fill="#252C2F" xlink:href="#p"/></g></g></g></g></svg>