<svg width="264" height="280" xmlns="http://www.w3.org/2000/svg" xmlns:xlink="http://www.w3.org/1999/xlink"><defs><path d="M12 160c0 66.274 53.726 120 120 120s120-53.726 120-120h12V0H0v160h12z" id="c"/><path d="M124 144.611V163h4c39.765 0 72 32.235 72 72v9H0v-9c0-39.765 32.235-72 72-72h4v-18.389c-17.237-8.189-29.628-24.924-31.695-44.73C38.48 99.058 34 94.052 34 88V74c0-5.946 4.325-10.882 10-11.834V56c0-30.928 25.072-56 56-56s56 25.072 56 56v6.166c5.675.952 10 5.888 10 11.834v14c0 6.052-4.48 11.058-10.305 11.881-2.067 19.806-14.458 36.541-31.695 44.73z" id="e"/><circle id="a" cx="120" cy="120" r="120"/></defs><g fill="none" fill-rule="evenodd"><g transform="translate(12 40)"><mask id="b" fill="#fff"><use xlink:href="#a"/></mask><use fill="#E6E6E6" xlink:href="#a"/><g mask="url(#b)" fill="#65C9FF"><path d="M0 0h240v240H0z"/></g></g><mask id="d" fill="#fff"><use xlink:href="#c"/></mask><g mask="url(#d)"><g transform="translate(32 36)"><mask id="f" fill="#fff"><use xlink:href="#e"/></mask><use fill="#D0C6AC" xlink:href="#e"/><g mask="url(#f)" fill="#614335"><path d="M0 0h264v280H0z"/></g><path d="M156 79v23c0 30.928-25.072 56-56 56s-56-25.072-56-56V79v15c0 30.928 25.072 56 56 56s56-25.072 56-56V79z" fill-opacity=".1" fill="#000" mask="url(#f)"/></g><g transform="translate(0 170)"><defs><path d="M165.96 29.295c36.976 3.03 66.04 34 66.04 71.757V110H32v-8.948c0-38.1 29.592-69.287 67.045-71.832-.03.373-.045.75-.045 1.128 0 11.863 14.998 21.48 33.5 21.48 18.502 0 33.5-9.617 33.5-21.48 0-.353-.013-.704-.04-1.053z" id="g"/></defs><mask id="h" fill="#fff"><use xlink:href="#g"/></mask><use fill="#E6E6E6" xlink:href="#g"/><g mask="url(#h)" fill="#25557C"><path d="M0 0h264v110H0z"/></g><g opacity=".6" mask="url(#h)" fill-opacity=".16" fill="#000"><ellipse cx="40.5" cy="27.848" rx="39.635" ry="26.914" transform="translate(92 4)"/></g></g><g fill="#000"><g transform="translate(78 134)"><defs><path d="M35.118 15.128C36.176 24.62 44.226 32 54 32c9.804 0 17.874-7.426 18.892-16.96.082-.767-.775-2.04-1.85-2.04H37.088c-1.08 0-2.075 1.178-1.97 2.128z" id="i"/></defs><mask id="j" fill="#fff"><use xlink:href="#i" transform="matrix(1 0 0 -1 0 45)"/></mask><use fill-opacity=".7" transform="matrix(1 0 0 -1 0 45)" xlink:href="#i"/><rect fill="#FFF" mask="url(#j)" x="39" y="2" width="31" height="16" rx="5"/><g mask="url(#j)" fill="#FF4F6D"><g transform="translate(38 24)"><circle cx="11" cy="11" r="11"/><circle cx="21" cy="11" r="11"/></g></g></g><path d="M120 130c0 4.418 5.373 8 12 8s12-3.582 12-8" fill-opacity=".16"/><g transform="translate(76 90)"><circle fill="#FFF" cx="30" cy="22" r="14"/><circle fill="#FFF" cx="82" cy="22" r="14"/><circle fill-opacity=".7" cx="30" cy="22" r="6"/><circle fill-opacity=".7" cx="82" cy="22" r="6"/></g><path d="M91.63 99.159c3.915-5.51 14.648-8.598 23.893-6.328a2 2 0 00.954-3.884c-10.737-2.637-23.165.94-28.107 7.894a2 2 0 003.26 2.318zm80.74 0c-3.915-5.51-14.648-8.598-23.893-6.328a2 2 0 01-.954-3.884c10.737-2.637 23.165.94 28.108 7.894a2 2 0 01-3.26 2.318z" fill-rule="nonzero" fill-opacity=".6"/></g><defs><path id="k" d="M0 0h264v280H0z"/><path d="M80.02 73.81A55.925 55.925 0 0077 92v6.166c-5.675.952-10 5.888-10 11.834v13c0 6.019 4.43 11.002 10.209 11.867 1.743 20.248 14.26 37.416 31.791 45.744v10.944A36.36 36.36 0 0193.5 195a36.35 36.35 0 01-23.19-8.312 54.1 54.1 0 01-5.81.312c-21.094 0-39.337-12.208-48.049-29.945C8.934 151.924 4 143.288 4 133.5c0-2.115.23-4.175.667-6.159A57.875 57.875 0 011 107c0-12.756 4.118-24.55 11.097-34.127A28.882 28.882 0 0112 70.5c0-11.297 6.573-21.06 16.104-25.67 8.433-18.128 26.454-30.894 47.546-31.78A28.406 28.406 0 0195.5 5c2.327 0 4.589.279 6.754.805C111.776 2.058 122.148 0 133 0c10.346 0 20.255 1.87 29.408 5.292A28.74 28.74 0 01166.5 5a28.406 28.406 0 0119.85 8.05c21.092.886 39.113 13.652 47.546 31.78C243.426 49.44 250 59.203 250 70.5c0 .8-.033 1.59-.097 2.373C256.882 82.45 261 94.243 261 107a57.875 57.875 0 01-3.667 20.341A28.6 28.6 0 01258 133.5c0 9.788-4.934 18.424-12.451 23.555C236.837 174.792 218.594 187 197.5 187a54.1 54.1 0 01-5.81-.312A36.35 36.35 0 01168.5 195c-4.018 0-7.884-.65-11.5-1.849v-12.54c17.53-8.328 30.048-25.496 31.791-45.744C194.57 134.002 199 129.02 199 123v-13c0-5.946-4.325-10.882-10-11.834V92c0-5.441-.776-10.702-2.224-15.676l1.377 12.87-11.34-24-45.136-19.523-30.114 10.557L80.065 76.42l-.045-2.609z" id="m"/></defs><mask id="l" fill="#fff"><use xlink:href="#k"/></mask><g mask="url(#l)"><g transform="translate(-1)"><mask id="n" fill="#fff"><use xlink:href="#m"/></mask><use fill="#314756" xlink:href="#m"/><g mask="url(#n)" fill="#724133"><path d="M0 0h264v280H0z"/></g><path d="M76.631 98.975A48.603 48.603 0 0176 91.152C76 62.35 101.296 39 132.5 39S189 62.35 189 91.152c0 2.659-.216 5.271-.631 7.823-4.09-25.092-27.545-44.33-55.869-44.33-28.324 0-51.78 19.238-55.869 44.33z" fill="#92D9FF"/><g transform="translate(49 72)"><defs><path d="M83.998 74.84a6.042 6.042 0 01-2.048 1.85c-8.902 4.82-18.073.642-23.074.94-2.416.144-5.535 1.785-6.66.05-1.24-1.913 2.852-12.46 12.505-14.216 7.01-1.275 16.776.138 19.277 3.474 2.5-3.336 12.267-4.749 19.276-3.474 9.654 1.757 13.745 12.303 12.506 14.215-1.125 1.736-4.244.095-6.66-.05-5.001-.297-14.172 3.881-23.074-.94a6.042 6.042 0 01-2.048-1.85z" id="o"/></defs><mask id="p" fill="#fff"><use xlink:href="#o"/></mask><use fill="#28354B" xlink:href="#o"/><g mask="url(#p)" fill="#D6B370"><path d="M-32 0h264v244H-32z"/></g></g><g transform="translate(62 85)"><defs><filter x="-.8%" y="-2.4%" width="101.5%" height="109.8%" filterUnits="objectBoundingBox" id="q"><feOffset dy="2" in="SourceAlpha" result="shadowOffsetOuter1"/><feColorMatrix values="0 0 0 0 0 0 0 0 0 0 0 0 0 0 0 0 0 0 0.2 0" in="shadowOffsetOuter1" result="shadowMatrixOuter1"/><feMerge><feMergeNode in="shadowMatrixOuter1"/><feMergeNode in="SourceGraphic"/></feMerge></filter></defs><g filter="url(#q)" transform="translate(6 7)" fill="#252C2F" fill-rule="nonzero"><path d="M34 41h-2.758C17.315 41 9 33.336 9 20.5 9 10.127 10.817 0 32.53 0h2.94C57.183 0 59 10.127 59 20.5 59 32.569 48.721 41 34 41zM32.385 6C13 6 13 12.841 13 21.502 13 28.572 16.116 37 30.97 37H34c12.365 0 21-6.373 21-15.498C55 12.84 55 6 35.615 6h-3.23zM96 41h-2.758C79.315 41 71 33.336 71 20.5 71 10.127 72.817 0 94.53 0h2.94C119.183 0 121 10.127 121 20.5 121 32.569 110.721 41 96 41zM94.385 6C75 6 75 12.841 75 21.502 75 28.572 78.12 37 92.97 37H96c12.365 0 21-6.373 21-15.498C117 12.84 117 6 97.615 6h-3.23z"/><path d="M2.955 5.772C3.645 5.096 11.21 0 32.5 0c17.851 0 21.63 1.853 27.35 4.652l.419.207c.398.14 2.431.83 4.81.907a16.998 16.998 0 004.563-.869C76.17 1.722 82.562 0 97.5 0c21.29 0 28.854 5.096 29.545 5.772 1.634 0 2.955 1.29 2.955 2.885v2.886c0 1.596-1.32 2.886-2.955 2.886 0 0-6.901 0-6.901 2.886 0 2.885-1.962-4.176-1.962-5.772v-2.81c-3.603-1.38-10.054-3.947-20.682-3.947-11.842 0-17.739 2.1-22.798 4.185l.057.137-.003 1.986-2.217 5.35L69.8 15.36c-.244-.097-.772-.27-1.504-.451-2.04-.503-4.137-.656-5.992-.276-.68.14-1.312.35-1.891.633l-2.643 1.29-2.643-5.16.117-2.295.08-.195c-4.362-2.033-8.385-4.12-22.824-4.12-10.628 0-17.078 2.565-20.682 3.944v2.812c0 1.596-2.954 8.657-2.954 5.772 0-2.886-5.91-2.886-5.91-2.886-1.63 0-2.954-1.29-2.954-2.886V8.657c0-1.595 1.324-2.885 2.955-2.885z"/></g></g></g></g></g></g></svg>