<svg width="264" height="280" xmlns="http://www.w3.org/2000/svg" xmlns:xlink="http://www.w3.org/1999/xlink"><defs><path d="M12 160c0 66.274 53.726 120 120 120s120-53.726 120-120h12V0H0v160h12z" id="c"/><path d="M124 144.611V163h4c39.765 0 72 32.235 72 72v9H0v-9c0-39.765 32.235-72 72-72h4v-18.389c-17.237-8.189-29.628-24.924-31.695-44.73C38.48 99.058 34 94.052 34 88V74c0-5.946 4.325-10.882 10-11.834V56c0-30.928 25.072-56 56-56s56 25.072 56 56v6.166c5.675.952 10 5.888 10 11.834v14c0 6.052-4.48 11.058-10.305 11.881-2.067 19.806-14.458 36.541-31.695 44.73z" id="e"/><circle id="a" cx="120" cy="120" r="120"/></defs><g fill="none" fill-rule="evenodd"><g transform="translate(12 40)"><mask id="b" fill="#fff"><use xlink:href="#a"/></mask><use fill="#E6E6E6" xlink:href="#a"/><g mask="url(#b)" fill="#65C9FF"><path d="M0 0h240v240H0z"/></g></g><mask id="d" fill="#fff"><use xlink:href="#c"/></mask><g mask="url(#d)"><g transform="translate(32 36)"><mask id="f" fill="#fff"><use xlink:href="#e"/></mask><use fill="#D0C6AC" xlink:href="#e"/><g mask="url(#f)" fill="#EDB98A"><path d="M0 0h264v280H0z"/></g><path d="M156 79v23c0 30.928-25.072 56-56 56s-56-25.072-56-56V79v15c0 30.928 25.072 56 56 56s56-25.072 56-56V79z" fill-opacity=".1" fill="#000" mask="url(#f)"/></g><g transform="translate(0 170)"><defs><path d="M133.96.295c36.976 3.03 66.04 34 66.04 71.757V81H0v-8.948C0 33.952 29.592 2.765 67.045.22 67.015.593 67 .97 67 1.348c0 11.863 14.998 21.48 33.5 21.48 18.502 0 33.5-9.617 33.5-21.48 0-.353-.013-.704-.04-1.053z" id="g"/></defs><g transform="translate(32 29)"><mask id="h" fill="#fff"><use xlink:href="#g"/></mask><use fill="#E6E6E6" xlink:href="#g"/><g mask="url(#h)" fill="#262E33"><path d="M-32-29h264V81H-32z"/></g><g opacity=".6" mask="url(#h)" fill-opacity=".16" fill="#000"><ellipse cx="40.5" cy="27.848" rx="39.635" ry="26.914" transform="translate(60 -25)"/></g></g><path d="M100.785 29.122C62.512 30.804 32 62.365 32 101.052V110h69.362C97.96 97.92 96 83.709 96 68.5c0-14.327 1.74-27.769 4.785-39.378zM163.638 110H232v-8.948c0-38.345-29.975-69.69-67.771-71.878C167.265 40.77 169 54.194 169 68.5c0 15.209-1.96 29.42-5.362 41.5z" fill="#3A4C5A"/><path d="M181 86l9.556-7.167a4 4 0 014.856.043L202 84l-21 2z" fill="#E6E6E6"/><path d="M101 28c-4 19.333-2.333 46.667 5 82H90L76 74l6-9-6-6 19-30c2.028-.63 4.028-.964 6-1zm62 0c4 19.333 2.333 46.667-5 82h16l14-36-6-9 6-6-19-30c-2.028-.63-4.028-.964-6-1z" fill="#2F4351"/></g><g fill="#000"><g transform="translate(78 134)"><path d="M44.19 16.106c-.172-5.11-4.398-9.309-9.896-10.106 3.366 1.959 5.686 5.495 5.686 9.677 0 5.668-5.473 10.568-11.803 10.568H28a13 13 0 004.392.755c5.322 0 9.821-3.153 11.294-7.486 2.475 2.156 6.177 3.525 10.314 3.525 4.137 0 7.84-1.37 10.314-3.525C65.787 23.847 70.286 27 75.608 27c1.552 0 3.034-.268 4.392-.756l-.177.001c-6.33 0-11.803-4.9-11.803-10.568 0-4.182 2.32-7.718 5.686-9.677-5.498.797-9.724 4.996-9.897 10.106-2.564 1.736-6.014 2.8-9.809 2.8-3.795 0-7.245-1.064-9.81-2.8z" opacity=".6" fill-opacity=".6"/><circle fill-opacity=".2" fill="#FF4646" cx="17" cy="15" r="9"/><circle fill-opacity=".2" fill="#FF4646" cx="91" cy="15" r="9"/></g><path d="M120 130c0 4.418 5.373 8 12 8s12-3.582 12-8" fill-opacity=".16"/><path d="M92.16 117.553c1.847 3.798 6.004 6.447 10.838 6.447 4.816 0 8.961-2.63 10.817-6.407.552-1.122-.233-2.04-1.024-1.36-2.451 2.107-5.932 3.423-9.793 3.423-3.74 0-7.124-1.235-9.56-3.228-.891-.728-1.818.014-1.278 1.125zm58 0c1.847 3.798 6.004 6.447 10.838 6.447 4.816 0 8.961-2.63 10.817-6.407.552-1.122-.233-2.04-1.024-1.36-2.451 2.107-5.932 3.423-9.793 3.423-3.74 0-7.124-1.235-9.56-3.228-.891-.728-1.818.014-1.278 1.125zm-30.065-18.428c.004-.009.004-.009 0 0m-24.811-12.12c-2.368-.266-4.858.497-6.427 2.434-.59.728-1.553 2.48-1.509 3.417.017.356.225.375 1.124.59 1.646.392 4.5-1.114 6.355-.972 2.582.198 5.047 1.395 7.283 2.679 3.838 2.202 8.354 6.84 13.093 6.598.353-.018 5.42-1.739 4.41-2.723-.316-.484-3.034-1.128-3.501-1.361-2.172-1.084-4.367-2.448-6.443-3.718-4.528-2.772-8.944-6.338-14.385-6.944m48.746 12.12c-.004-.009-.004-.009 0 0m24.876-12.12c2.368-.266 4.857.497 6.426 2.434.59.728 1.554 2.48 1.509 3.417-.017.356-.225.375-1.124.59-1.645.392-4.5-1.114-6.355-.972-2.582.198-5.046 1.395-7.282 2.679-3.839 2.202-8.355 6.84-13.093 6.598-.353-.018-5.42-1.739-4.411-2.723.317-.484 3.034-1.128 3.502-1.361 2.171-1.084 4.367-2.448 6.442-3.718 4.528-2.772 8.945-6.338 14.386-6.944" fill-opacity=".6"/></g><defs><path id="i" d="M0 0h264v280H0z"/><path d="M48.725 89.219A12 12 0 0042 100v13c0 6.019 4.43 11.002 10.209 11.867 1.743 20.248 14.26 37.416 31.791 45.744V189h-4c-1.586 0-3.16.051-4.721.152a72.113 72.113 0 01-13.689-9.103A48.013 48.013 0 0148 182c-26.51 0-48-21.49-48-48 0-14.41 6.349-27.335 16.402-36.134A43.802 43.802 0 018 72c0-21.84 15.911-39.962 36.774-43.41C51.019 11.89 67.12 0 86 0a43.798 43.798 0 0122 5.886A43.798 43.798 0 01130 0c18.88 0 34.981 11.89 41.226 28.59C192.09 32.039 208 50.16 208 72a43.802 43.802 0 01-8.402 25.866C209.65 106.665 216 119.591 216 134c0 26.51-21.49 48-48 48-4.72 0-9.281-.681-13.59-1.951a72.113 72.113 0 01-13.689 9.103A73.084 73.084 0 00136 189h-4v-18.389c17.53-8.328 30.048-25.496 31.791-45.744C169.57 124.002 174 119.02 174 113v-13a11.99 11.99 0 00-5.476-10.073 24.329 24.329 0 01-3.235-1.47c-.42-.12-.85-.218-1.289-.291v-.453c-8.68-5.303-17.235-16.538-22.55-30.914C131.312 58.835 119.547 60 107 60c-11.961 0-23.212-1.059-33.02-2.921C68.756 71.064 60.465 82.043 52 87.423v.743a11.912 11.912 0 00-3.275 1.053z" id="k"/></defs><mask id="j" fill="#fff"><use xlink:href="#i"/></mask><g mask="url(#j)"><path d="M104.985 27.764C113.013 26.627 121.796 26 131 26c10.358 0 20.183.794 29 2.216C182.451 38.75 198 61.56 198 88v17.044c-11.538-.371-25.169-14.28-32.55-34.245C155.312 72.835 143.547 74 131 74c-11.961 0-23.212-1.059-33.02-2.921-7.304 19.548-20.597 33.223-31.98 33.943V88c0-26.825 16.004-49.913 38.985-60.236z" fill-opacity=".16" fill="#000"/><g transform="translate(24 10)"><mask id="l" fill="#fff"><use xlink:href="#k"/></mask><use fill="#314756" xlink:href="#k"/><g mask="url(#l)" fill="#4A312C"><path d="M0 0h264v280H0z"/></g></g><g transform="translate(48 72)"><defs><path d="M84 69.297c-6.792-3.586-16.422-4.148-21.611-2.165-5.775 2.205-10.884 8.451-19.75 5.696-.37-.114-.73.217-.619.58 1.374 4.51 9.008 7.599 11.602 7.7 11.34.442 20.473-8.278 30.378-8.947 9.906.67 19.04 9.389 30.379 8.947 2.594-.101 10.228-3.19 11.601-7.7.111-.363-.25-.694-.618-.58-8.867 2.755-13.976-3.49-19.75-5.696-5.19-1.983-14.82-1.42-21.612 2.165z" id="m"/></defs><mask id="n" fill="#fff"><use xlink:href="#m"/></mask><use fill="#28354B" xlink:href="#m"/><g mask="url(#n)" fill="#ECDCBF"><path d="M-32 0h264v244H-32z"/></g></g><g transform="translate(61 85)"><defs><filter x="-.8%" y="-2.4%" width="101.5%" height="109.8%" filterUnits="objectBoundingBox" id="o"><feOffset dy="2" in="SourceAlpha" result="shadowOffsetOuter1"/><feColorMatrix values="0 0 0 0 0 0 0 0 0 0 0 0 0 0 0 0 0 0 0.2 0" in="shadowOffsetOuter1" result="shadowMatrixOuter1"/><feMerge><feMergeNode in="shadowMatrixOuter1"/><feMergeNode in="SourceGraphic"/></feMerge></filter></defs><g filter="url(#o)" transform="translate(8 8)" fill="#D6EAF2"><path d="M46.25 7.275c2.37.022 3.492.417 3.896 2.89.41 2.506.011 5.322-.46 7.79-.721 3.768-1.92 7.46-4.708 10.214-1.47 1.45-3.261 2.606-5.167 3.395-1.012.42-2.081.722-3.15.952-.312.067-2.979.434-1.343.248-3.817.435-7.958.418-11.146-2.012-3.532-2.692-5.952-6.952-7.015-11.196-.623-2.483-1.93-8.422.459-10.407 2.737-2.274 28.633-1.874 28.633-1.874zM22.217.49c-5.44.188-9.071 1.144-11.755 6.58-4.917 9.96 3.5 24.899 12.89 28.97 10.976 4.76 23.24-.508 29.043-10.034 3.073-5.044 4.626-12.683 4.526-18.502C56.795.077 51.607-.13 45.51.034L22.218.49zM79.68 7.273c-2.371.022-3.492.416-3.896 2.89-.41 2.505-.012 5.322.46 7.79.72 3.767 1.919 7.459 4.708 10.213 1.47 1.45 3.261 2.606 5.167 3.396 1.012.419 2.08.722 3.15.951.312.067 2.978.435 1.343.248 3.817.436 7.958.418 11.145-2.011 3.533-2.692 5.952-6.952 7.016-11.196.623-2.483 1.93-8.422-.46-10.407-2.737-2.275-28.632-1.874-28.632-1.874zM103.713.488c5.44.187 9.071 1.144 11.754 6.579 4.918 9.96-3.5 24.9-12.889 28.97-10.977 4.76-23.24-.508-29.043-10.033C70.46 20.96 68.907 13.32 69.007 7.5 69.135.074 74.323-.132 80.42.031l23.29.457z"/><path d="M13.197 4.927c-3.412.191-7.31.237-10.507 1.712-3.385 1.562-3.908 5.1.36 5.587 1.92.22 3.845-.143 5.737-.481 1.55-.277 3.655-.187 5.12-.78 2.729-1.103 2.553-6.225-.71-6.038m99.538 0c3.412.191 7.31.237 10.507 1.712 3.384 1.562 3.907 5.1-.36 5.587-1.921.22-3.845-.143-5.738-.481-1.55-.277-3.654-.187-5.119-.78-2.73-1.103-2.554-6.225.71-6.038M73.11 7.013c-1.947-2.3-7.019-3.628-10.219-3.628-3.2 0-8.123 1.328-10.069 3.628-.981 1.16-1.015 2.711.686 3.438 2.118.906 4.01-.737 5.705-1.596 2.168-1.098 5.499-.978 7.506 0 1.708.833 3.586 2.502 5.704 1.596 1.701-.727 1.668-2.279.686-3.438"/></g></g></g></g></g></svg>