<svg width="264" height="280" xmlns="http://www.w3.org/2000/svg" xmlns:xlink="http://www.w3.org/1999/xlink"><defs><path d="M12 160c0 66.274 53.726 120 120 120s120-53.726 120-120h12V0H0v160h12z" id="c"/><path d="M124 144.611V163h4c39.765 0 72 32.235 72 72v9H0v-9c0-39.765 32.235-72 72-72h4v-18.389c-17.237-8.189-29.628-24.924-31.695-44.73C38.48 99.058 34 94.052 34 88V74c0-5.946 4.325-10.882 10-11.834V56c0-30.928 25.072-56 56-56s56 25.072 56 56v6.166c5.675.952 10 5.888 10 11.834v14c0 6.052-4.48 11.058-10.305 11.881-2.067 19.806-14.458 36.541-31.695 44.73z" id="e"/><circle id="a" cx="120" cy="120" r="120"/></defs><g fill="none" fill-rule="evenodd"><g transform="translate(12 40)"><mask id="b" fill="#fff"><use xlink:href="#a"/></mask><use fill="#E6E6E6" xlink:href="#a"/><g mask="url(#b)" fill="#65C9FF"><path d="M0 0h240v240H0z"/></g></g><mask id="d" fill="#fff"><use xlink:href="#c"/></mask><g mask="url(#d)"><g transform="translate(32 36)"><mask id="f" fill="#fff"><use xlink:href="#e"/></mask><use fill="#D0C6AC" xlink:href="#e"/><g mask="url(#f)" fill="#D08B5B"><path d="M0 0h264v280H0z"/></g><path d="M156 79v23c0 30.928-25.072 56-56 56s-56-25.072-56-56V79v15c0 30.928 25.072 56 56 56s56-25.072 56-56V79z" fill-opacity=".1" fill="#000" mask="url(#f)"/></g><g transform="translate(0 170)"><defs><path d="M165.96 29.295c36.976 3.03 66.04 34 66.04 71.757V110H32v-8.948c0-38.1 29.592-69.287 67.045-71.832-.03.373-.045.75-.045 1.128 0 11.863 14.998 21.48 33.5 21.48 18.502 0 33.5-9.617 33.5-21.48 0-.353-.013-.704-.04-1.053z" id="g"/></defs><mask id="h" fill="#fff"><use xlink:href="#g"/></mask><use fill="#E6E6E6" xlink:href="#g"/><g mask="url(#h)" fill="#929598"><path d="M0 0h264v110H0z"/></g><g opacity=".6" mask="url(#h)" fill-opacity=".16" fill="#000"><ellipse cx="40.5" cy="27.848" rx="39.635" ry="26.914" transform="translate(92 4)"/></g></g><g fill="#000"><rect x="42" y="18" width="24" height="6" rx="3" transform="translate(78 134)" fill-opacity=".7"/><path d="M120 130c0 4.418 5.373 8 12 8s12-3.582 12-8" fill-opacity=".16"/><g transform="translate(76 90)" fill-opacity=".6"><circle cx="30" cy="22" r="6"/><circle cx="82" cy="22" r="6"/></g><path d="M98.766 83.578l.911-.402c5.242-2.081 13.188-1.209 18.046 1.123.567.272.18 1.153-.402 1.108-14.919-1.151-24.963 8.146-28.375 14.44-.101.187-.407.208-.482.034-2.308-5.319 4.45-13.985 10.302-16.303zm64.227 10.492c5.761.773 14.746 5.795 13.994 11.607-.024.19-.312.25-.436.091-2.487-3.188-21.712-7.872-28.714-6.894-.64.09-1.063-.571-.626-.984 3.744-3.535 10.62-4.518 15.782-3.82z" fill-opacity=".6"/></g><defs><path id="i" d="M0 0h264v280H0z"/><path d="M66.042 77.075C71.68 45.205 99.513 21 133 21c37.555 0 68 30.445 68 68v30.751c.875 9.803 1.694 16.671 2.456 20.603 1.377 7.104 5.694 4.761 5.694 14.866s-4.328 13.5-4.347 22.485c-.019 8.986 15.397 16.131 15.397 27.538 0 11.406-7.074 65.233-77.622 65.233-15.07 0-27.907-4.287-38.51-12.862.682 6.49 1.326 13.952 1.932 22.386H59c.932-23.771-7.284-37.064-7.284-63.554 0-26.49 13.637-65.018 13.284-74.446.02-.582.04-1.272.062-2.068A69.174 69.174 0 0165 137V89c0-3.976.341-7.872.996-11.661L66 77l.042.075zM132.5 53C102.4 53 78 77.4 78 107.5v23c0 30.1 24.4 54.5 54.5 54.5h1c30.1 0 54.5-24.4 54.5-54.5v-23c0-30.1-24.4-54.5-54.5-54.5h-1z" id="k"/></defs><mask id="j" fill="#fff"><use xlink:href="#i"/></mask><g mask="url(#j)"><g transform="translate(-1)"><mask id="l" fill="#fff"><use xlink:href="#k"/></mask><use fill="#3B6BAD" xlink:href="#k"/><g mask="url(#l)" fill="#5199E4"><path d="M0 0h264v280H0z"/></g><path d="M72.074 104.96A61.351 61.351 0 0171 93.5C71 59.534 98.758 32 133 32c34.242 0 62 27.534 62 61.5 0 3.916-.369 7.747-1.074 11.46C192.34 72.683 165.67 47 133 47s-59.341 25.683-60.926 57.96z" fill-opacity=".5" fill="#FFF" mask="url(#l)"/><path d="M187.93 104.695A54.756 54.756 0 01189 115.5v23c0 30.1-24.4 54.5-54.5 54.5h-3c-30.1 0-54.5-24.4-54.5-54.5v-23c0-3.7.369-7.312 1.07-10.805-.046.93-.07 1.864-.07 2.805v23c0 30.1 24.4 54.5 54.5 54.5h1c30.1 0 54.5-24.4 54.5-54.5v-23c0-.94-.024-1.876-.07-2.805zm-73.763 102.3c6.484 4.986 21.496 6.713 38.238 3.761 16.74-2.951 30.257-9.71 34.645-16.612.068.253.125.508.171.767 1.71 9.695-13.236 20.434-33.38 23.987-20.146 3.552-37.863-1.428-39.573-11.123a8.75 8.75 0 01-.101-.78zm11.868 28.926c8.192 5.654 24.387 5.923 41.069-.149 16.682-6.072 28.915-16.687 31.556-26.284.143.32.275.647.396.98 4.527 12.436-8.077 28.441-28.151 35.748-20.074 7.306-40.017 3.147-44.544-9.29-.12-.332-.23-.667-.326-1.005z" fill-opacity=".16" fill="#000" opacity=".9" mask="url(#l)"/></g></g></g></g></svg>